PathFileType	4	(X/Y/Z)	OpenSim_Sub06_CSBaseline_Accel.trc
DataRate	CameraRate	NumFrames	NumMarkers	Units	OrigDataRate	OrigDataStartFrame	OrigNumFrames
100	100	30	8	m	100	6370	8492
Frame#	Time	torso_imu_offset_imu	pelvis_imu_offset_imu	tibia_r_imu_offset_imu	femur_r_imu_offset_imu	tibia_l_imu_offset_imu	femur_l_imu_offset_imu	toes_r_imu_offset_imu	toes_l_imu_offset_imu
				X1	Y1	Z1	X2	Y2	Z2	X3	Y3	Z3	X4	Y4	Z4	X5	Y5	Z5	X6	Y6	Z6	X7	Y7	Z7	X8		Y8	Z8	

6370	63.69000000	8.12495982	-0.86567836	7.07878551	8.33651525	1.99921880	3.81488313	9.61114229	2.64004765	1.09971700	9.27969335	-1.83878578	-1.22457263	8.48388124	-2.98376907	6.68321977	7.54142622	-0.49102217	-0.53867717	4.69280955	-1.93852720	8.64972916	14.10203088	0.93364981	13.34279438
6371	63.70000000	8.02859417	-0.91316615	6.97820265	7.90753566	1.82032375	4.06506693	9.78047336	3.29024363	0.77673227	9.23914696	-1.67885550	-1.20095623	9.58126389	0.30601745	5.93134823	8.10324591	-0.45976284	-0.93262000	4.50376249	-2.09223727	8.67741030	15.32148065	1.82255427	11.26529641
6372	63.71000000	8.14192786	-0.92961270	6.91196019	7.67014016	1.73385897	4.02309424	9.91979372	3.31846841	0.62263061	9.19363297	-1.67059810	-0.83978886	10.29791260	1.67446111	3.70070338	8.79648791	0.39161577	-0.67708998	4.64409870	-2.26987588	8.69127400	16.38860238	1.40708722	9.03624659
6373	63.72000000	8.12344598	-0.96382384	6.82957013	7.69666838	1.71014788	3.92381795	9.97241343	2.84724644	0.52102790	9.11454771	-1.79997884	-0.63606860	11.41882927	1.30193223	1.84058737	9.15119680	1.73006182	-0.18678405	4.62186482	-2.53238846	8.46936803	17.97393085	-0.35866857	7.73730397
6374	63.73000000	8.07621034	-0.99644601	6.82498740	7.56287080	1.50458035	3.88211596	10.04437640	2.02335098	0.49714926	8.97799256	-1.77802733	-0.49536680	13.49883563	-1.47419917	0.79534920	9.95582935	2.28553635	-1.22109955	4.89584019	-2.34950226	8.40484163	18.76743745	-1.97032153	6.94867619
6375	63.74000000	8.08737077	-0.90597702	6.79687341	7.71829681	1.61507767	3.75011227	10.17258362	1.11185281	0.44721785	8.93597750	-1.68369819	-0.38099849	14.74778985	-4.48221668	0.25760739	9.56360899	4.17984050	-0.34417104	4.76960876	-2.39459351	8.43248768	18.76639219	-3.56112845	5.94497870
6376	63.75000000	8.28565696	-0.89375051	6.62601113	8.03231066	1.65357440	3.76170226	10.28785326	0.09259361	0.63100430	8.69965508	-1.64334589	-0.68313890	13.50045490	-5.98471599	0.31761937	9.03869249	5.72274612	0.03305170	4.57825658	-2.38927106	8.50255365	18.97928684	-5.04833445	4.67056262
6377	63.76000000	8.65602112	-0.89089161	6.65124521	8.28987832	1.65732618	3.84924276	10.38681646	-0.93179839	0.88119959	8.72436298	-1.74131459	-1.04495674	10.53930323	-6.39087218	1.14195863	8.44100466	7.20741223	0.23508285	4.38624001	-2.51568893	8.66175223	19.05663782	-6.29167095	3.33749870
6378	63.77000000	8.94244130	-0.86886380	6.61172046	8.79187426	1.76198100	3.88977231	10.44716219	-1.76766493	1.08216241	8.84785151	-1.80619036	-1.43895115	8.33157899	-6.27460169	2.17795723	7.61084737	8.56902173	0.24185086	4.57464400	-2.43474675	8.56537653	18.70408438	-7.13063322	2.00893846
6379	63.78000000	9.20786734	-0.85715845	6.79326803	9.21718807	1.90411245	3.86951651	10.24020147	-1.99839818	1.23971717	8.98171247	-1.67654625	-1.59618043	7.85444951	-5.61884865	3.02206243	6.87022580	9.76626439	0.86285809	4.64522657	-2.44688892	8.61592656	18.06919999	-7.90167691	0.87441010
6380	63.79000000	9.44591062	-0.81731697	6.86889550	9.44526337	1.95889361	3.72486600	9.96767038	-1.79343956	1.29908086	9.03466631	-2.10061567	-1.71813847	7.82099190	-4.25643292	3.60657152	6.66900171	10.05718197	1.22898710	4.67109314	-2.50059252	8.69472796	17.38617377	-8.33241538	0.07125191
6381	63.80000000	9.36977745	-0.73210292	6.82293736	9.47086062	2.07191770	3.57961477	9.82580558	-1.49358842	1.65511134	8.98960673	-2.21756287	-1.70651198	8.07950671	-2.85075169	3.22648675	7.09808110	9.00202656	0.80297325	4.39036838	-2.61281493	8.74675039	16.44699972	-8.54950703	-0.51703359
6382	63.81000000	9.43029913	-0.71978525	6.79844525	9.44439465	2.10130975	3.43016523	9.92987921	-1.21951521	1.76058595	9.04123046	-2.43518988	-1.68081227	8.59387838	-2.25993681	2.14375282	6.74985876	7.65988048	1.97295596	4.14891651	-2.49783548	8.95395435	17.12302075	-5.38678618	-0.41884232
6383	63.82000000	9.52142933	-0.67261814	6.86580450	9.23816054	2.12617566	3.62679139	10.17293893	-0.73402225	1.89600992	9.20957027	-2.58338781	-1.70235455	10.40704202	-1.97132573	1.06880894	7.28427776	5.62042420	1.73052288	4.27751397	-2.27364668	9.16579329	17.87723304	-3.87883659	-7.60109506
6384	63.83000000	9.81144534	-0.55060133	6.98334863	9.25378397	1.95139684	3.63696048	10.54745273	-0.26213357	1.94268742	9.39278474	-3.07579883	-1.47557129	11.96192179	-0.55812596	1.91937767	7.73516999	4.68830018	1.38202362	4.04447766	-2.03574832	9.59239984	15.31387361	-12.33542335	-6.85820381
6385	63.84000000	9.96326934	-0.55392164	6.89416103	9.17399157	1.54430999	4.12870423	10.90975334	0.08164319	2.44902681	9.50912236	-3.50443407	-1.46175231	13.03700757	1.52112040	4.08017467	8.67842315	3.88709816	1.38359589	4.07797334	-2.66752219	9.54913009	36.59936190	8.71132710	36.48346116
6386	63.85000000	10.63926543	-0.25744646	7.14307331	9.38134433	1.05687175	5.15569080	11.35242953	0.23173337	2.30127003	10.07786835	-3.55408892	-1.16113371	14.13428490	2.76175372	5.23969599	11.22303043	3.63115003	0.77571136	3.97636465	-2.42123461	10.17445767	15.74141022	-10.23600892	3.89746167
6387	63.86000000	11.78993111	0.00631267	7.51075954	10.02145922	0.28803210	5.68387374	12.04719909	0.18700500	2.38610362	10.55027727	-3.74701936	-0.86678621	13.93581791	4.06682594	5.74710940	15.59568866	4.85995287	-0.54325590	3.77563062	-2.99350113	10.10996299	-18.43543470	-1.57769915	17.00673682
6388	63.87000000	12.27501025	0.18147270	7.64908641	10.99952592	-0.94054296	5.66625794	12.36156173	0.03568705	3.40692037	10.81800669	-3.83094445	-0.85369038	14.88816286	4.24548099	7.68627826	18.39157971	5.42616363	-1.61233269	3.94577863	-3.10680348	10.15982077	14.75525875	8.87041999	14.28324750
6389	63.88000000	11.74496636	0.37525734	7.76942494	12.03662291	-2.06242518	5.50722367	12.22795645	0.34102009	3.93707463	10.96715574	-3.37597688	-0.86925354	12.31921670	3.30062034	9.20763562	15.17028269	4.25189339	-2.00478922	4.06224248	-3.17947425	10.29675769	-0.28213430	-2.45260261	12.95398690
6390	63.89000000	11.06547982	0.61964259	7.56085706	12.62449447	-2.57568649	5.56759218	12.13609691	1.04733319	4.31917065	11.07489499	-3.13232936	-0.69308527	7.47630297	0.32839645	9.01676102	11.37842017	1.77801212	-1.24854464	4.51379410	-2.19934601	10.63119784	5.33615550	-0.32921343	11.08186806
6391	63.90000000	10.90985349	0.68487389	7.15994970	11.98595900	-1.72246575	5.55460117	12.14960317	1.34645381	4.59160251	11.45365719	-2.74821412	-0.78991027	5.32340639	-4.07457168	5.85399365	9.79668925	-0.04405478	-0.45679738	4.06941735	-2.17681154	10.90561456	5.61926124	0.61387123	11.30116196
6392	63.91000000	11.08566305	0.70617813	6.98552583	11.18078544	-0.09914862	5.16649138	12.45128745	1.07327374	4.76875541	11.51796270	-2.63812512	-0.65719381	6.00535494	-8.31708789	0.42870330	9.54552125	1.72374520	-0.73680657	4.75883678	-1.85163159	10.98362238	6.67068903	-0.33490406	10.81778792
6393	63.92000000	11.15909642	0.86724930	6.77766432	10.63458285	1.11221000	4.96906676	12.83060464	0.47544405	4.67890190	12.20154021	-2.63941071	-0.62354646	8.22299217	-10.28216757	-4.10010649	9.00591348	-0.92687891	-2.10330082	4.91258460	-2.48293816	11.02054221	5.68929999	-0.11823888	10.78165164
6394	63.93000000	10.87792830	0.97734121	6.50609295	9.88514832	1.86324501	5.24250039	13.20572712	0.29949444	4.65070240	10.78791182	-2.46989255	0.06553115	11.10604132	-10.70894439	-4.73593063	8.76022821	-2.17853487	-2.16257347	5.02945306	-2.64210229	11.06977402	4.68375793	1.47682144	11.72820999
6395	63.94000000	10.52721620	1.03329934	6.31418671	9.40769556	2.10421014	5.51199840	13.35106968	0.47772962	4.26370597	11.41425483	-1.35753536	1.24385839	10.75902291	-9.95695783	-1.83379249	8.05696703	-1.97801104	-2.26909411	5.47902112	-2.82999866	10.86790051	4.69888351	2.02571899	11.52830494
6396	63.95000000	10.11553686	1.01210582	6.22531464	9.22483775	1.92256947	5.82567068	13.22262719	0.50337751	3.14223567	11.16277482	-1.50389784	1.31507299	8.58974934	-7.56594721	1.28985528	9.88464681	-1.73654392	-2.41802712	4.97306293	-2.23323736	10.58704502	6.15855441	1.22291979	11.15232465
6397	63.96000000	9.66962508	0.93285785	6.08776296	9.43006539	1.55127185	6.04707468	12.82086726	0.75716499	2.38849906	10.58062041	-1.41605782	1.12015385	8.75898817	-4.10048237	2.39643101	10.80189655	-1.32415927	-3.82973264	5.93297978	-2.62616427	10.29201747	5.37594901	0.84062327	11.26126024
6398	63.97000000	9.11793331	0.86047688	5.98222700	9.42835050	0.86147082	6.20955892	12.39334804	1.53291796	2.31208135	10.43144607	-0.96282813	1.44413854	10.09784616	-1.84343304	1.80286963	9.87113104	-0.17940117	-4.59578212	5.95113448	-4.22556179	8.93545577	4.54029716	0.96047588	11.62793606
6399	63.98000000	8.34741620	0.93584775	5.86875828	9.10122502	0.07713557	6.25508053	11.92862912	2.67787220	2.17141826	9.90861426	-0.71880517	1.89796208	10.55083142	-1.29094040	1.13133734	9.59662763	1.10535714	-4.28960021	7.97931498	-3.65449799	9.08382892	4.40018075	0.47393561	11.50119333
